<svg xmlns="http://www.w3.org/2000/svg" width="240" height="320" viewBox="0 0 240 320">
  <rect width="240" height="320" fill="#10201F"/>
  <!-- H01 顶部状态轨道 -->
  <rect x="16" y="18" width="208" height="24" rx="12" fill="#19302E" stroke="#2A4D47"/>
  <path d="M28 19h162v22H28a11 11 0 0 1 0-22Z" fill="url(#bar)"/>
  <path d="M201 30a8 8 0 0 1 14 0M204 33a4.2 4.2 0 0 1 8 0M208 36h.1" fill="none" stroke="#F2FAF7" stroke-width="1.8" stroke-linecap="round"/>
  <defs><linearGradient id="bar" x1="28" y1="30" x2="190" y2="30" gradientUnits="userSpaceOnUse"><stop stop-color="#58D6B3"/><stop offset="1" stop-color="#79DCC1"/></linearGradient></defs>
  <!-- T01 时间左移；W01 深圳实时天气 -->
  <text x="10" y="108" fill="#F2FAF7" font-family="Montserrat, sans-serif" font-size="43" font-weight="400">19:52</text>
  <g transform="translate(159 67)" fill="none" stroke="#58D6B3" stroke-width="1.8" stroke-linecap="round" stroke-linejoin="round"><circle cx="12" cy="12" r="4"/><path d="M12 2v2M12 20v2M4.93 4.93l1.41 1.41M17.66 17.66l1.41 1.41M2 12h2M20 12h2M4.93 19.07l1.41-1.41M17.66 6.34l1.41-1.41"/></g>
  <text x="188" y="82" fill="#9BB9B0" font-family="Montserrat, sans-serif" font-size="10">Shenzhen</text>
  <text x="188" y="104" fill="#F2FAF7" font-family="Montserrat, sans-serif" font-size="18">28°</text>
  <!-- 原有环境信息 -->
  <circle cx="56" cy="154" r="20" fill="#19302E" stroke="#2A4D47"/>
  <path d="M56 143v14m-3-10a3 3 0 1 1 6 0v10a5 5 0 1 1-6 0Z" fill="none" stroke="#58D6B3" stroke-width="1.7" stroke-linecap="round"/><circle cx="56" cy="161" r="2" fill="#58D6B3"/>
  <text x="91" y="163" fill="#F2FAF7" font-family="Noto Sans SC, sans-serif" font-size="23">30.2 °C</text>
  <circle cx="56" cy="202" r="20" fill="#19302E" stroke="#2A4D47"/>
  <path d="M56 189c-4 5-7 9-7 13a7 7 0 0 0 14 0c0-4-3-8-7-13Z" fill="none" stroke="#58D6B3" stroke-width="1.7"/><path d="M53 204c1 2 2 3 4 3" stroke="#58D6B3" stroke-width="1.4" stroke-linecap="round"/>
  <text x="91" y="211" fill="#F2FAF7" font-family="Noto Sans SC, sans-serif" font-size="23">76.7 %RH</text>
  <circle cx="36" cy="284" r="20" fill="#19302E" stroke="#2A4D47"/>
  <path d="M36 271v10m0 0 5 5m-5-5-4 5m4 0v9m0-9 5 6m-5-6-5 6" fill="none" stroke="#58D6B3" stroke-width="2.3" stroke-linecap="round"/>
  <text x="171" y="280" fill="#F2FAF7" font-family="Montserrat, sans-serif" font-size="12">CPU <tspan fill="#58D6B3">3%</tspan></text><text x="171" y="300" fill="#F2FAF7" font-family="Montserrat, sans-serif" font-size="12">FPS  <tspan fill="#58D6B3">19</tspan></text>
  <rect x="100" y="303" width="16" height="3" rx="2" fill="#58D6B3"/><rect x="124" y="303" width="7" height="3" rx="2" fill="#587870"/><text x="194" y="317" fill="#9BB9B0" font-family="Montserrat, sans-serif" font-size="11">1 / 2</text>
</svg>
